<mxfile host="app.diagrams.net" modified="2022-01-17T06:03:35.817Z" agent="5.0 (Windows NT 10.0; Win64; x64) AppleWebKit/537.36 (KHTML, like Gecko) Chrome/97.0.4692.71 Safari/537.36 Edg/97.0.1072.55" etag="LrsMT6L8NpKID5Mvevdw" version="16.2.4" type="github">
  <diagram id="sq37mKlpCmkyDO-cciQu" name="第 1 页">
    <mxGraphModel dx="1038" dy="667" grid="1" gridSize="10" guides="1" tooltips="1" connect="1" arrows="1" fold="1" page="1" pageScale="1" pageWidth="827" pageHeight="1169" math="0" shadow="0">
      <root>
        <mxCell id="0" />
        <mxCell id="1" parent="0" />
        <mxCell id="HYWkI9VlT3H1Tp6rjIP5-1" value="&lt;font style=&quot;font-size: 16px&quot;&gt;1&lt;/font&gt;" style="rounded=0;whiteSpace=wrap;html=1;" vertex="1" parent="1">
          <mxGeometry x="120" y="200" width="80" height="40" as="geometry" />
        </mxCell>
        <mxCell id="HYWkI9VlT3H1Tp6rjIP5-2" value="&lt;font style=&quot;font-size: 16px&quot;&gt;3&lt;/font&gt;" style="rounded=0;whiteSpace=wrap;html=1;" vertex="1" parent="1">
          <mxGeometry x="200" y="200" width="80" height="40" as="geometry" />
        </mxCell>
        <mxCell id="HYWkI9VlT3H1Tp6rjIP5-3" value="&lt;font style=&quot;font-size: 16px&quot;&gt;4&lt;/font&gt;" style="rounded=0;whiteSpace=wrap;html=1;" vertex="1" parent="1">
          <mxGeometry x="280" y="200" width="80" height="40" as="geometry" />
        </mxCell>
        <mxCell id="HYWkI9VlT3H1Tp6rjIP5-4" value="&lt;font style=&quot;font-size: 16px&quot;&gt;2&lt;/font&gt;" style="rounded=0;whiteSpace=wrap;html=1;" vertex="1" parent="1">
          <mxGeometry x="360" y="200" width="80" height="40" as="geometry" />
        </mxCell>
        <mxCell id="HYWkI9VlT3H1Tp6rjIP5-5" value="&lt;font style=&quot;font-size: 16px&quot;&gt;9&lt;/font&gt;" style="rounded=0;whiteSpace=wrap;html=1;" vertex="1" parent="1">
          <mxGeometry x="440" y="200" width="80" height="40" as="geometry" />
        </mxCell>
        <mxCell id="HYWkI9VlT3H1Tp6rjIP5-6" value="&lt;font style=&quot;font-size: 16px&quot;&gt;8&lt;/font&gt;" style="rounded=0;whiteSpace=wrap;html=1;" vertex="1" parent="1">
          <mxGeometry x="520" y="200" width="80" height="40" as="geometry" />
        </mxCell>
        <mxCell id="HYWkI9VlT3H1Tp6rjIP5-7" value="&lt;font style=&quot;font-size: 16px&quot;&gt;10&lt;/font&gt;" style="rounded=0;whiteSpace=wrap;html=1;" vertex="1" parent="1">
          <mxGeometry x="600" y="200" width="80" height="40" as="geometry" />
        </mxCell>
        <mxCell id="HYWkI9VlT3H1Tp6rjIP5-8" value="" style="swimlane;startSize=0;fontSize=16;strokeColor=#82b366;fillColor=#d5e8d4;gradientColor=#99FFCC;" vertex="1" parent="1">
          <mxGeometry x="190" y="185" width="260" height="70" as="geometry">
            <mxRectangle x="220" y="100" width="50" height="40" as="alternateBounds" />
          </mxGeometry>
        </mxCell>
      </root>
    </mxGraphModel>
  </diagram>
</mxfile>
